<?xml version="1.0" standalone="no"?>
<!DOCTYPE svg PUBLIC "-//W3C//DTD SVG 20010904//EN"
 "http://www.w3.org/TR/2001/REC-SVG-20010904/DTD/svg10.dtd">
<svg version="1.0" xmlns="http://www.w3.org/2000/svg"
 width="444.000000pt" height="410.000000pt" viewBox="0 0 444.000000 410.000000"
 preserveAspectRatio="xMidYMid meet">

<g transform="translate(0.000000,410.000000) scale(0.100000,-0.100000)"
fill="#000000" stroke="none">
<path d="M1180 3799 c-155 -20 -319 -90 -433 -184 -200 -165 -303 -472 -267
-793 35 -316 176 -534 425 -657 130 -64 222 -86 393 -92 126 -5 143 -8 138
-22 -2 -9 -18 -54 -35 -101 -48 -135 -53 -194 -48 -577 4 -395 5 -400 87 -568
132 -271 403 -456 702 -481 l78 -7 0 36 c0 48 31 143 64 195 34 55 98 116 153
149 90 52 113 55 493 63 309 7 364 10 425 27 299 85 483 262 571 548 26 85 28
101 28 290 1 179 -1 209 -22 285 -95 350 -361 556 -758 586 l-84 7 0 261 c0
274 -11 388 -48 496 -92 267 -285 440 -581 523 -73 20 -99 21 -646 23 -314 1
-599 -2 -635 -7z m1128 -429 c197 -32 315 -148 342 -335 13 -92 13 -537 0
-606 -6 -30 -23 -81 -39 -114 -27 -58 -103 -155 -122 -155 -5 0 -44 35 -87 78
-129 129 -272 207 -447 243 -76 16 -137 19 -385 19 -325 0 -393 8 -481 57 -65
35 -122 100 -151 172 -20 50 -23 73 -23 216 0 156 1 162 29 223 51 111 154
180 296 201 82 13 993 13 1068 1z m878 -1310 c160 -21 267 -94 314 -215 21
-53 24 -77 24 -205 1 -114 -3 -156 -17 -196 -40 -115 -108 -184 -225 -227 -52
-19 -86 -21 -412 -27 -320 -6 -363 -9 -434 -29 -162 -44 -318 -138 -428 -260
l-55 -61 -50 53 c-110 116 -123 173 -123 519 0 289 6 338 51 434 26 56 123
164 147 164 23 0 109 -69 148 -119 49 -62 80 -134 90 -210 6 -49 8 -51 38 -51
52 0 158 20 226 42 186 60 350 183 455 341 l38 57 71 0 c39 0 103 -5 142 -10z"/>
</g>
</svg>
