<?xml version="1.0" standalone="no"?>
<!DOCTYPE svg PUBLIC "-//W3C//DTD SVG 20010904//EN"
 "http://www.w3.org/TR/2001/REC-SVG-20010904/DTD/svg10.dtd">
<svg version="1.0" xmlns="http://www.w3.org/2000/svg"
 width="2000.000000pt" height="438.000000pt" viewBox="0 0 2000.000000 438.000000"
 preserveAspectRatio="xMidYMid meet">

<g transform="translate(0.000000,438.000000) scale(0.100000,-0.100000)"
fill="#000000" stroke="none">
<path d="M3355 3899 c-274 -40 -497 -192 -607 -414 -100 -201 -123 -497 -57
-737 59 -217 203 -392 402 -487 122 -59 227 -83 390 -89 122 -4 138 -7 133
-21 -2 -9 -18 -54 -35 -101 -48 -135 -53 -194 -48 -577 4 -396 5 -401 87 -568
135 -272 403 -456 702 -481 l78 -7 0 37 c0 46 33 145 66 198 64 101 183 179
304 198 36 5 189 10 340 10 301 0 361 6 495 51 250 83 421 262 501 524 26 85
28 101 28 290 1 218 -10 287 -69 419 -117 264 -372 427 -707 452 l-88 7 0 261
c0 274 -11 388 -48 496 -92 267 -284 440 -581 523 -73 20 -98 21 -651 23 -316
1 -602 -2 -635 -7z m1133 -429 c197 -32 315 -148 342 -335 13 -92 13 -537 0
-606 -15 -76 -61 -170 -110 -223 -24 -25 -46 -46 -51 -46 -5 0 -44 35 -87 78
-129 129 -272 207 -447 243 -76 16 -137 19 -385 19 -325 0 -393 8 -481 57 -65
35 -122 100 -151 172 -20 50 -23 73 -23 216 0 155 1 162 28 220 59 127 146
182 327 209 61 9 980 5 1038 -4z m878 -1310 c160 -21 267 -94 314 -215 21 -53
24 -76 24 -210 1 -133 -2 -156 -22 -206 -44 -111 -105 -169 -218 -211 -55 -20
-83 -22 -419 -29 -329 -6 -366 -8 -435 -28 -163 -48 -314 -141 -422 -260 l-55
-61 -50 53 c-110 116 -123 172 -123 522 0 295 8 357 57 447 25 46 122 148 141
148 23 0 109 -69 148 -119 50 -63 80 -134 90 -211 l7 -52 74 6 c253 23 498
169 638 379 l38 57 71 0 c39 0 103 -5 142 -10z"/>
<path d="M12835 3080 c-207 -33 -399 -138 -518 -285 -222 -274 -264 -804 -91
-1136 95 -182 274 -323 469 -373 381 -96 734 23 881 297 20 38 35 56 38 47 5
-16 56 -319 56 -332 0 -5 41 -8 90 -8 l90 0 0 425 0 425 -345 0 -345 0 0 -95
0 -95 215 0 c247 0 231 8 194 -102 -51 -153 -163 -259 -334 -315 -69 -23 -97
-26 -210 -27 -219 0 -348 46 -470 169 -81 80 -126 159 -157 272 -30 112 -31
354 0 464 32 119 76 195 156 274 119 118 234 159 446 159 199 0 331 -45 438
-151 53 -53 106 -148 118 -211 6 -33 7 -34 48 -28 194 26 206 29 206 43 0 8
-13 55 -29 103 -81 242 -243 393 -489 456 -77 21 -128 26 -247 29 -82 2 -177
0 -210 -5z"/>
<path d="M6790 2175 l0 -885 130 0 130 0 0 405 0 405 463 -2 462 -3 3 -402 2
-403 125 0 125 0 0 885 0 885 -125 0 -125 0 0 -380 0 -380 -465 0 -465 0 0
380 0 380 -130 0 -130 0 0 -885z"/>
<path d="M9081 3038 c-23 -60 -581 -1731 -581 -1739 0 -5 60 -9 134 -9 l134 0
71 223 c40 122 78 240 85 262 l13 40 369 3 369 2 85 -265 85 -265 139 0 c106
0 137 3 134 13 -3 6 -139 405 -303 885 l-298 872 -214 0 c-212 0 -214 0 -222
-22z m374 -541 c80 -245 145 -453 145 -462 0 -13 -36 -15 -295 -15 -162 0
-295 3 -295 8 -1 12 294 921 298 918 1 -2 68 -204 147 -449z"/>
<path d="M10350 2175 l0 -885 130 0 130 0 0 825 c0 454 4 825 8 825 4 0 174
-370 378 -822 l371 -823 246 -3 247 -2 0 885 0 885 -130 0 -130 0 0 -825 c0
-454 -3 -825 -8 -825 -4 0 -181 370 -394 823 l-386 822 -231 3 -231 2 0 -885z"/>
<path d="M14150 2513 c0 -656 9 -742 90 -903 95 -187 250 -301 469 -345 117
-24 354 -16 461 15 186 54 316 160 393 321 88 184 96 262 97 947 l0 512 -140
0 -140 0 0 -572 c0 -619 -3 -651 -54 -761 -58 -121 -155 -192 -305 -222 -233
-48 -443 42 -534 228 -61 126 -61 119 -65 750 l-3 577 -135 0 -134 0 0 -547z"/>
<path d="M16020 2176 l0 -886 130 0 130 0 0 319 0 319 283 4 c247 4 292 8 360
26 259 71 397 255 397 532 0 231 -97 414 -264 495 -137 67 -146 68 -613 73
l-423 4 0 -886z m715 665 c164 -16 269 -77 315 -183 32 -72 39 -220 16 -303
-23 -78 -106 -163 -191 -196 -57 -22 -75 -24 -327 -27 l-268 -3 0 360 0 361
183 0 c100 0 223 -5 272 -9z"/>
</g>
</svg>
